<svg xmlns:svg="http://www.w3.org/2000/svg" xmlns="http://www.w3.org/2000/svg" version="1.1" xml:space="preserve" width="255.5" height="118.4" viewBox="0 0 255.5 118.4"><style>.s0{fill:#d1bd3e;}.s1{fill:none;stroke-width:0.3;stroke:#c9a063;}.s2{fill:#f5dc40;}.s3{fill:#7a503f;}</style><defs><clipPath clipPathUnits="userSpaceOnUse"><path d="M0 113.4H255.1V0H0Z"/></clipPath></defs><g transform="matrix(1.3333333,0,0,-1.3333333,-42.684319,133.15746)"><g transform="rotate(20.778843,127.84558,56.011271)"><g clip-path="url(#clipPath4501)"><g transform="translate(199.8174,64.1434)"><path d="M0 0C1.5 0.5 3.7 1.1 3.9 3 3.9 3 3.9 3 3.9 3 3.9 3 3.7 3.6 3.4 3.9 3.1 4.3 2.8 4.5 2.4 4.7 2.1 4.8 1.9 4.9 1.4 5.1 1.2 5.2 0.9 5.3 0.5 5.4 0.4 5.5 0.1 5.6-0.2 5.7c-1.3 0.3-2.8 0.5-2.8 0.5 0 0-1 0-1.9-0.1-0.4 0-1-0.1-1.7-0.2 0 0-0.7 0.1-0.7 0.1-0.5 0-1.1 0.1-2 0.2V-2.3c0 0 0 0 0 0C-6.1-1.7-3-0.9 0 0" fill="#d1bd3e"/></g><g transform="translate(199.8174,64.1434)"><path d="M0 0C1.5 0.5 3.7 1.1 3.9 3 3.9 3 3.9 3 3.9 3 3.9 3 3.7 3.6 3.4 3.9 3.1 4.3 2.8 4.5 2.4 4.7 2.1 4.8 1.9 4.9 1.4 5.1 1.2 5.2 0.9 5.3 0.5 5.4 0.4 5.5 0.1 5.6-0.2 5.7c-1.3 0.3-2.8 0.5-2.8 0.5 0 0-1 0-1.9-0.1-0.4 0-1-0.1-1.7-0.2 0 0-0.7 0.1-0.7 0.1-0.5 0-1.1 0.1-2 0.2V-2.3c0 0 0 0 0 0C-6.1-1.7-3-0.9 0 0Z" class="s1"/></g><g transform="translate(55.9023,64.2088)"><path d="m0 0c-1.5 0.5-3.7 1.1-3.9 3 0 0 0 0 0 0 0 0 0.2 0.5 0.5 0.9 0.3 0.4 0.6 0.5 1.1 0.8 0.2 0.1 0.5 0.2 1 0.4 0.1 0.1 0.4 0.2 0.8 0.3 0.1 0 0.4 0.2 0.8 0.2 1.3 0.3 2.8 0.5 2.8 0.5 0 0 1 0 1.9-0.1C5.3 6 5.9 6 6.6 5.9 6.6 5.9 7.3 5.9 7.3 5.9 7.8 6 8.4 6 9.2 6.1V-2.3C9.2-2.3 9.2-2.3 9.2-2.3 6.1-1.7 3-0.9 0 0" fill="#d1bd3e"/></g><g transform="translate(55.9023,64.2088)"><path d="m0 0c-1.5 0.5-3.7 1.1-3.9 3 0 0 0 0 0 0 0 0 0.2 0.5 0.5 0.9 0.3 0.4 0.6 0.5 1.1 0.8 0.2 0.1 0.5 0.2 1 0.4 0.1 0.1 0.4 0.2 0.8 0.3 0.1 0 0.4 0.2 0.8 0.2 1.3 0.3 2.8 0.5 2.8 0.5 0 0 1 0 1.9-0.1C5.3 6 5.9 6 6.6 5.9 6.6 5.9 7.3 5.9 7.3 5.9 7.8 6 8.4 6 9.2 6.1V-2.3C9.2-2.3 9.2-2.3 9.2-2.3 6.1-1.7 3-0.9 0 0Z" class="s1"/></g><g transform="translate(193.252,70.0189)"><path d="m0 0c1.3 0.1 1.8 0.3 3.6 0.3 0 0 2.3 0 5.3-1.5 0.5-0.2 0.8-0.5 1-0.7 0.3-0.3 0.4-0.6 0.5-1 0 0 0 0 0 0 0 0 0-0.1 0.1-0.1 0.4-0.9 0.2-2.2 0.3-3.2 0-0.4 0-0.5 0-0.7 0-0.2 0.1-1 0.1-2.1 0-0.9-0.1-5.5-0.2-11.8 2.1-0.8 4.6-1.6 7.3-2.3 5.6-1.4 10.7-1.7 14.7-1.6-2 3.3-4.1 6.6-6.1 10 2.2 3.3 4.5 6.6 6.7 10-9.1 0.5-13.1 1.5-14.7 2.4 0 0-0.2 0.1-0.3 0.2-0.9 0.5-3 1.7-5.8 3-1 0.5-2.1 0.9-3.5 1.4 0 0-6 1.9-10.3 0C-2.1 1.8-2.4 1.3-2.4 1.3-2.5 1.1-2.8 0.6-2.7 0.2-2.5-0.2-1.5-0.1 0 0" fill="#f5dc40"/></g><g transform="translate(193.252,70.0189)"><path d="m0 0c1.3 0.1 1.8 0.3 3.6 0.3 0 0 2.3 0 5.3-1.5 0.5-0.2 0.8-0.5 1-0.7 0.3-0.3 0.4-0.6 0.5-1 0 0 0 0 0 0 0 0 0-0.1 0.1-0.1 0.4-0.9 0.2-2.2 0.3-3.2 0-0.4 0-0.5 0-0.7 0-0.2 0.1-1 0.1-2.1 0-0.9-0.1-5.5-0.2-11.8 2.1-0.8 4.6-1.6 7.3-2.3 5.6-1.4 10.7-1.7 14.7-1.6-2 3.3-4.1 6.6-6.1 10 2.2 3.3 4.5 6.6 6.7 10-9.1 0.5-13.1 1.5-14.7 2.4 0 0-0.2 0.1-0.3 0.2-0.9 0.5-3 1.7-5.8 3-1 0.5-2.1 0.9-3.5 1.4 0 0-6 1.9-10.3 0C-2.1 1.8-2.4 1.3-2.4 1.3-2.5 1.1-2.8 0.6-2.7 0.2-2.5-0.2-1.5-0.1 0 0Z" class="s1"/></g><g transform="translate(62.4678,70.0843)"><path d="m0 0c-1.3 0.1-1.8 0.3-3.6 0.3 0 0-2.3 0-5.3-1.5-0.5-0.2-0.8-0.5-1-0.7-0.3-0.3-0.4-0.6-0.5-1 0 0 0 0 0 0 0 0 0-0.1-0.1-0.1-0.4-0.9-0.2-2.2-0.3-3.2 0-0.4 0-0.5 0-0.7 0-0.2-0.1-1-0.1-2.1 0-0.9 0.1-5.5 0.2-11.8-2.1-0.8-4.6-1.6-7.3-2.3-5.6-1.4-10.7-1.7-14.7-1.6 2 3.3 4.1 6.6 6.1 10-2.2 3.3-4.5 6.7-6.7 10 9.1 0.5 13.1 1.5 14.7 2.4 0 0 0.2 0.1 0.3 0.2 0.9 0.5 3 1.7 5.8 3 1 0.5 2.1 0.9 3.5 1.4 0 0 6 1.9 10.3 0C2.1 1.8 2.4 1.3 2.4 1.3 2.5 1.1 2.8 0.6 2.7 0.3 2.5-0.2 1.5-0.1 0 0" fill="#f5dc40"/></g><g transform="translate(62.4678,70.0843)"><path d="m0 0c-1.3 0.1-1.8 0.3-3.6 0.3 0 0-2.3 0-5.3-1.5-0.5-0.2-0.8-0.5-1-0.7-0.3-0.3-0.4-0.6-0.5-1 0 0 0 0 0 0 0 0 0-0.1-0.1-0.1-0.4-0.9-0.2-2.2-0.3-3.2 0-0.4 0-0.5 0-0.7 0-0.2-0.1-1-0.1-2.1 0-0.9 0.1-5.5 0.2-11.8-2.1-0.8-4.6-1.6-7.3-2.3-5.6-1.4-10.7-1.7-14.7-1.6 2 3.3 4.1 6.6 6.1 10-2.2 3.3-4.5 6.7-6.7 10 9.1 0.5 13.1 1.5 14.7 2.4 0 0 0.2 0.1 0.3 0.2 0.9 0.5 3 1.7 5.8 3 1 0.5 2.1 0.9 3.5 1.4 0 0 6 1.9 10.3 0C2.1 1.8 2.4 1.3 2.4 1.3 2.5 1.1 2.8 0.6 2.7 0.3 2.5-0.2 1.5-0.1 0 0Z" class="s1"/></g><g transform="translate(51.5547,61.7674)"><path d="m0 0c-0.1-2.5 0-5 0.1-7.5 0.1-2.1 0.2-4.1 0.4-6.2 0.6-9.2 75.2-9 75.8-9 0.6 0 75.2-0.2 75.8 9 0.1 2.1 0.3 4.1 0.4 6.2 0.1 2.5 0.2 5 0.1 7.5 0 0.8-0.1 1.7-0.1 2.5-0.1 0.9 0.2 2-0.3 2.9 0 0 0 0.1-0.1 0.1 0 0 0 0 0 0 0 0 0 0 0 0.1C151.8 3.8 149.1 3.3 147.2 2.8 143.3 2 139.5 1.3 135.5 0.7 135.5 0.7 135.5 0.7 135.5 0.7 120.9-1.3 77.1-2.2 76.3-2.2 75.5-2.2 31.7-1.3 17.1 0.7 17.1 0.7 17.1 0.7 17.1 0.7 13.2 1.3 9.3 2 5.5 2.8 3.6 3.3 0.8 3.8 0.6 5.5 0.5 5.5 0.5 5.5 0.5 5.5 0.5 5.5 0.5 5.5 0.5 5.5 0.5 5.4 0.5 5.4 0.5 5.4-0.1 4.6 0.2 3.4 0.1 2.5 0.1 1.7 0 0.8 0 0" fill="#f5dc40"/></g><g transform="translate(51.5547,61.7674)"><path d="m0 0c-0.1-2.5 0-5 0.1-7.5 0.1-2.1 0.2-4.1 0.4-6.2 0.6-9.2 75.2-9 75.8-9 0.6 0 75.2-0.2 75.8 9 0.1 2.1 0.3 4.1 0.4 6.2 0.1 2.5 0.2 5 0.1 7.5 0 0.8-0.1 1.7-0.1 2.5-0.1 0.9 0.2 2-0.3 2.9 0 0 0 0.1-0.1 0.1 0 0 0 0 0 0 0 0 0 0 0 0.1C151.8 3.8 149.1 3.3 147.2 2.8 143.3 2 139.5 1.3 135.5 0.7 135.5 0.7 135.5 0.7 135.5 0.7 120.9-1.3 77.1-2.2 76.3-2.2 75.5-2.2 31.7-1.3 17.1 0.7 17.1 0.7 17.1 0.7 17.1 0.7 13.2 1.3 9.3 2 5.5 2.8 3.6 3.3 0.8 3.8 0.6 5.5 0.5 5.5 0.5 5.5 0.5 5.5 0.5 5.5 0.5 5.5 0.5 5.5 0.5 5.4 0.5 5.4 0.5 5.4-0.1 4.6 0.2 3.4 0.1 2.5 0.1 1.7 0 0.8 0 0Z" class="s1"/></g><g transform="translate(187.874,47.683)"><path d="m0 0c0-0.3-0.2-0.6-0.5-0.6-0.3 0-0.6 0.1-0.7 0.5-0.3 2.7-0.5 4.1-0.8 6.8 0 0.3 0.2 0.6 0.5 0.6 0.3 0 0.6-0.1 0.7-0.5 0-0.4 0.1-0.5 0.1-0.9 0.1 0.4 0.2 0.7 0.6 1 0.4 0.3 1 0.7 1.6 0.7C2.2 7.7 2.3 7.2 2.3 7.1 2.4 6.6 1.9 6.5 1.3 6.5-0.2 6.2-0.5 5.5-0.6 5.1-0.4 3-0.2 2 0 0" fill="#7a503f"/></g><g transform="translate(175.8223,53.1927)"><path d="M0 0C2.1 0.2 2.4-1.8 2.4-2.3 2.4-2.4 2.5-2.9 1.9-2.9 0.3-3.1-0.5-3.1-2.1-3.3-2.2-2-2-0.2 0 0M3.1-4.1C2.5-4.2 2.5-4.6 2.5-4.9 2.4-6.2 1.5-6.6 0.6-6.7c-2.2-0.2-2.5 1.8-2.7 2.9 1.8 0.2 2.6 0.2 4.4 0.4 0.9 0.1 1.4 0.3 1.3 1.2-0.1 1-1.2 3-3.7 2.8-2.5-0.2-3.5-2.1-3.3-4.3 0.1-1.1 0.6-3.9 4-3.5 2.6 0.3 3.2 2.1 3.2 2.7 0 0.3-0.3 0.5-0.7 0.5" fill="#7a503f"/></g><g transform="translate(164.6611,52.097)"><path d="m0 0c0.2-2.3 0.3-3.4 0.4-5.6 0-0.3 0.1-0.9 0.9-0.9 0.1 0 0.3 0 0.5 0.1 0.1 0.1 0.2 0.1 0.3 0.2 0.1 0.1 0.1 0.1 0.2 0.2 0.2 0.3 0 0.7 0.2 0.9 0.1 0.1 0.3 0.1 0.4 0.1 0.3-0.2 0.3-1 0-1.5-0.5-0.7-1.6-0.7-1.9-0.7-0.4 0-1 0-1.4 0.4-0.4 0.4-0.4 0.8-0.4 1-0.2 2.3-0.2 3.5-0.4 5.8-0.6 0-0.9-0.1-1.5-0.1-0.2 0-0.3 0.1-0.3 0.2 0 0.1 0.1 0.3 0.3 0.3 0.6 0 0.9 0.1 1.5 0.1 0 0.7-0.1 1.1-0.1 1.8 0 0.3 0.3 0.6 0.5 0.6 0.3 0 0.6-0.2 0.6-0.5 0.1-0.7 0.1-1.1 0.1-1.8 0.7 0.1 1 0.1 1.7 0.1 0 0 0 0 0 0C2 0.7 2.2 0.7 2.6 0.7 2.7 0.7 2.8 0.6 2.8 0.5 2.8 0.3 2.7 0.2 2.6 0.2 1.6 0.1 1 0.1 0 0" fill="#7a503f"/></g><g transform="translate(154.5889,51.4525)"><path d="m0 0c0.1-2.3 0.2-3.4 0.3-5.6 0-0.3 0.1-0.9 0.9-0.9 0.1 0 0.3 0 0.5 0.1 0.1 0.1 0.2 0.1 0.3 0.2 0.1 0.1 0.1 0.1 0.2 0.2 0.3 0.3 0 0.7 0.2 0.9 0.1 0.1 0.3 0.1 0.4 0.1 0.3-0.2 0.3-1 0-1.5-0.5-0.7-1.6-0.7-1.9-0.7-0.4 0-1 0-1.4 0.5-0.3 0.4-0.4 0.8-0.4 1-0.1 2.3-0.2 3.5-0.3 5.8-0.6 0-0.9 0-1.5-0.1-0.2 0-0.3 0.1-0.3 0.2 0 0.1 0.1 0.3 0.3 0.3 0.6 0 0.9 0 1.5 0.1 0 0.7-0.1 1.1-0.1 1.8 0 0.3 0.3 0.6 0.6 0.6 0.3 0 0.6-0.2 0.6-0.5 0-0.7 0.1-1.1 0.1-1.8 0.7 0 1 0.1 1.7 0.1 0 0 0 0 0 0 0.3 0 0.5 0 0.9 0.1C2.7 0.7 2.8 0.5 2.8 0.4 2.8 0.3 2.7 0.2 2.6 0.1 1.6 0.1 1 0.1 0 0" fill="#7a503f"/></g><g transform="translate(144.6523,45.263)"><path d="m0 0c-0.4-0.4-1.5-0.9-2.4-0.9-0.3 0-1.8 0-1.9 1.3 0 2 2.8 2.2 4.1 2.3zM1.3-0.6C1.3-0.5 1.2-0.2 1.2-0.1 1.1 1.5 1.1 2.3 1.1 4 1 4.5 0.9 5 0.6 5.3-0.2 6.4-1.6 6.4-2.1 6.4c-0.4 0-1.2 0-2-0.5-0.9-0.6-1.5-1.8-1.2-2.4 0.1-0.1 0.3-0.4 0.6-0.4 0.2 0 0.4 0.2 0.4 0.2 0.1 0.1 0.1 0.1 0.1 0.2 0.1 0.2 0.1 0.6 0.2 0.8 0 0 0 0 0 0.1 0.1 0.3 0.5 1.3 1.9 1.4 1.2 0 1.9-0.6 1.9-2 0-0.2 0-0.3 0-0.6-2.1-0.2-5.4-0.5-5.4-2.9 0-1.8 1.9-2 2.8-1.9 1.5 0 2.5 0.6 2.9 0.9 0.1-0.4 0.4-0.8 0.8-0.8 0.3 0 0.5 0.2 0.5 0.4 0 0.1-0.2 0.4-0.2 0.5" fill="#7a503f"/></g><g transform="translate(130.4355,44.1048)"><path d="m0 0c0-0.3-0.3-0.5-0.6-0.5-0.3 0-0.6 0.2-0.6 0.5 0 2.7 0 4.1 0 6.8 0 0.3 0.3 0.5 0.6 0.5 0.3 0 0.6-0.2 0.6-0.5 0-0.4 0-0.5 0-0.9 0.1 0.4 0.3 0.6 0.7 0.9 0.4 0.3 1.1 0.5 1.7 0.5C3.1 7.4 3.1 6.9 3.1 6.8 3.1 6.3 2.6 6.3 2 6.3 0.5 6.2 0.1 5.5 0 5.1 0 3.1 0 2 0 0" fill="#7a503f"/></g><g transform="translate(122.0693,44.1312)"><path d="m0 0c0-0.3-0.3-0.5-0.6-0.5-0.3 0-0.6 0.2-0.6 0.5 0 2.7 0.1 4.1 0.1 6.8 0 0.3 0.3 0.5 0.6 0.5C-0.2 7.4 0.1 7.1 0.1 6.8 0 4.1 0 2.7 0 0M0.5 9.8C0.4 9.4 0 9-0.5 9-1 9-1.4 9.4-1.4 9.9c0 0.5 0.4 0.8 0.9 0.8 0.5 0 0.9-0.4 0.9-0.8" fill="#7a503f"/></g><g transform="translate(114.457,44.2621)"><path d="m0 0c0-0.3-0.2-0.5-0.5-0.5-0.2 0-0.3 0.1-0.4 0.2C-2.1 1.5-2.7 2.4-3.9 4.2-4.2 4.1-4.3 4-4.5 3.9-4.5 2.5-4.6 1.8-4.6 0.4-4.6 0.1-4.7-0.1-4.9-0.2-4.9-0.2-4.9-0.2-4.9-0.2-5-0.3-5-0.3-5-0.3c-0.1 0-0.1 0-0.2 0 0 0 0 0 0 0h0 0c-0.1 0-0.1 0-0.2 0.1-0.2 0.1-0.4 0.4-0.4 0.7 0.1 3.9 0.2 5.8 0.4 9.7 0 0.4 0.2 0.6 0.4 0.7 0 0 0.1 0 0.1 0 0 0 0 0 0.1 0 0 0 0 0 0 0 0 0 0 0 0 0 0.1 0 0.1 0 0.2-0.1 0.2-0.1 0.4-0.4 0.4-0.7-0.1-2.2-0.1-3.2-0.2-5.4 1.6 1.1 2.4 1.6 3.9 2.7 0 0 0.1 0.1 0.2 0.1C-0.2 7.4-0.1 7.2-0.1 7-0.1 6.9-0.1 6.8-0.2 6.8-1.4 6-2 5.6-3.1 4.8-1.9 3-1.3 2.1-0.1 0.3 0 0.2 0 0.1 0 0" fill="#7a503f"/></g><g transform="translate(100.5078,45.725)"><path d="m0 0c-0.5-0.3-1.5-0.7-2.4-0.7-0.3 0-1.8 0.2-1.7 1.5 0.1 2 3 2 4.3 2C0.1 1.7 0.1 1.1 0 0M1.2-0.7C1.2-0.6 1.2-0.3 1.2-0.2 1.3 1.4 1.3 2.2 1.4 3.9 1.4 4.4 1.3 4.9 1.1 5.3 0.4 6.4-1.1 6.5-1.5 6.6-1.9 6.6-2.7 6.7-3.5 6.2-4.5 5.7-5.2 4.5-4.9 3.9-4.8 3.8-4.6 3.5-4.3 3.5c0.2 0 0.4 0.2 0.4 0.2 0.1 0.1 0.1 0.1 0.1 0.2 0.1 0.2 0.2 0.6 0.2 0.8 0 0 0 0 0 0.1 0.1 0.3 0.6 1.3 2 1.2C-0.3 5.9 0.3 5.2 0.2 3.9 0.2 3.6 0.2 3.5 0.2 3.3-1.9 3.3-5.3 3.3-5.4 0.9c-0.1-1.8 1.7-2.1 2.6-2.2 1.5-0.1 2.5 0.4 3 0.7 0.1-0.4 0.3-0.9 0.7-0.9 0.3 0 0.5 0.1 0.5 0.3 0 0.1-0.1 0.4-0.1 0.5" fill="#7a503f"/></g><g transform="translate(86.2368,45.8207)"><path d="m0 0c0-0.3-0.3-0.5-0.6-0.5-0.3 0-0.6 0.3-0.6 0.6 0.2 2.7 0.3 4.1 0.6 6.8 0 0.3 0.3 0.5 0.6 0.5C0.3 7.4 0.6 7.1 0.6 6.8 0.5 6.4 0.5 6.2 0.5 5.9 0.7 6.2 0.8 6.5 1.3 6.7 1.7 7 2.4 7.2 3 7.1 3.7 7.1 3.7 6.6 3.7 6.5 3.6 6 3.2 6 2.5 6.1 1 6.1 0.6 5.4 0.4 5.1 0.3 3 0.2 2 0 0" fill="#7a503f"/></g><g transform="translate(77.896,46.5814)"><path d="m0 0c0-0.3-0.4-0.5-0.6-0.5-0.3 0-0.6 0.3-0.5 0.6 0.3 2.7 0.4 4.1 0.7 6.8 0 0.3 0.3 0.5 0.6 0.5C0.4 7.4 0.7 7.1 0.7 6.8 0.4 4.1 0.3 2.7 0 0M1.3 9.8C1.3 9.3 0.8 9 0.3 9c-0.5 0.1-0.9 0.5-0.8 0.9 0 0.5 0.5 0.8 1 0.7 0.5 0 0.9-0.5 0.8-0.9" fill="#7a503f"/></g><g transform="translate(70.4976,47.3607)"><path d="M0 0C0-0.3-0.3-0.5-0.5-0.5-0.7-0.4-0.8-0.3-0.9-0.2-2 1.7-2.5 2.6-3.6 4.6-3.8 4.4-3.9 4.4-4.1 4.2-4.3 2.9-4.4 2.2-4.6 0.8-4.6 0.5-4.7 0.3-4.9 0.2-4.9 0.2-4.9 0.2-4.9 0.2-5 0.2-5 0.1-5.1 0.1-5.1 0.1-5.2 0.1-5.2 0.1-5.3 0.1-5.3 0.1-5.3 0.1-5.3 0.1-5.3 0.1-5.3 0.1h0c-0.1 0-0.1 0-0.2 0.1-0.2 0.1-0.4 0.4-0.3 0.8 0.5 3.8 0.7 5.8 1.2 9.6 0 0.4 0.3 0.6 0.5 0.7 0 0 0.1 0 0.1 0 0 0 0 0 0.1 0 0 0 0 0 0 0 0 0 0 0 0 0 0.1 0 0.1 0 0.2-0.1 0.2-0.1 0.3-0.4 0.3-0.8-0.3-2.1-0.4-3.2-0.7-5.4 1.7 0.9 2.5 1.4 4.2 2.3C0.1 7.4 0.2 7.4 0.3 7.4 0.5 7.4 0.6 7.2 0.6 7 0.5 6.9 0.5 6.8 0.4 6.8-0.9 6.1-1.5 5.7-2.7 5-1.7 3.1-1.1 2.2-0.1 0.3 0 0.2 0 0.1 0 0" fill="#7a503f"/></g></g></g></g></svg>